<svg width="19" height="19" viewBox="0 0 19 19" fill="none" xmlns="http://www.w3.org/2000/svg">
<path d="M9.49792 0.269651C5.71563 0.269651 2.12397 -0.0668077 0.752093 3.45403C0.185427 4.90819 0.267718 6.79674 0.267718 9.5009C0.267718 11.8738 0.191677 14.104 0.752093 15.5467C2.12084 19.0697 5.74167 18.7322 9.49584 18.7322C13.1177 18.7322 16.8521 19.1092 18.2406 15.5467C18.8083 14.078 18.725 12.2176 18.725 9.5009C18.725 5.89465 18.924 3.56653 17.175 1.81861C15.4042 0.0477755 13.0094 0.269651 9.49376 0.269651H9.49792ZM8.67084 1.93319C16.5604 1.92069 17.5646 1.04361 17.0104 13.228C16.8135 17.5374 13.5323 17.0644 9.49896 17.0644C2.1448 17.0644 1.93334 16.854 1.93334 9.49674C1.93334 2.05403 2.51668 1.93736 8.67084 1.93111V1.93319ZM14.425 3.46548C13.8135 3.46548 13.3177 3.96132 13.3177 4.57278C13.3177 5.18424 13.8135 5.68007 14.425 5.68007C15.0365 5.68007 15.5323 5.18424 15.5323 4.57278C15.5323 3.96132 15.0365 3.46548 14.425 3.46548ZM9.49792 4.76028C6.88022 4.76028 4.75834 6.88319 4.75834 9.5009C4.75834 12.1186 6.88022 14.2405 9.49792 14.2405C12.1156 14.2405 14.2365 12.1186 14.2365 9.5009C14.2365 6.88319 12.1156 4.76028 9.49792 4.76028ZM9.49792 6.42382C13.5656 6.42382 13.5708 12.578 9.49792 12.578C5.43126 12.578 5.42501 6.42382 9.49792 6.42382Z" fill="white"/>
</svg>
