<svg width="63" height="13" fill="none" xmlns="http://www.w3.org/2000/svg"><path d="M.632 12a.37.37 0 0 1-.272-.112.37.37 0 0 1-.112-.272V1.2c0-.117.032-.213.096-.288A.39.39 0 0 1 .632.8H4.92c1.28 0 2.288.304 3.024.912.736.597 1.104 1.477 1.104 2.64s-.368 2.043-1.104 2.64c-.725.587-1.733.88-3.024.88H2.536v3.744a.37.37 0 0 1-.112.272.339.339 0 0 1-.272.112H.632ZM4.84 6.096c.619 0 1.093-.144 1.424-.432.33-.299.496-.736.496-1.312 0-.555-.16-.987-.48-1.296-.32-.32-.8-.48-1.44-.48H2.504v3.52H4.84Z" fill="#2959CE"/><path d="M17.885 12a.404.404 0 0 1-.272-.096.404.404 0 0 1-.096-.272v-8.96L14.86 4.72a.363.363 0 0 1-.24.096c-.096 0-.187-.053-.272-.16l-.416-.528a.383.383 0 0 1-.08-.224c0-.128.053-.23.16-.304L17.5.912A.758.758 0 0 1 17.917.8h.816a.32.32 0 0 1 .256.112.32.32 0 0 1 .112.256v10.464a.37.37 0 0 1-.112.272.346.346 0 0 1-.256.096h-.848Zm7.195.16c-.842 0-1.573-.133-2.191-.4-.608-.277-1.072-.635-1.392-1.072-.31-.437-.475-.896-.497-1.376 0-.096.032-.17.096-.224a.326.326 0 0 1 .24-.096h.785c.224 0 .373.117.448.352.138.533.437.912.896 1.136.458.213.997.32 1.616.32.757 0 1.36-.176 1.808-.528.448-.363.672-.88.672-1.552 0-1.29-.785-1.936-2.352-1.936h-1.52a.404.404 0 0 1-.273-.096.404.404 0 0 1-.096-.272v-.432c0-.15.06-.293.177-.432L26.6 2.16h-4.72a.404.404 0 0 1-.273-.096.404.404 0 0 1-.096-.272v-.608c0-.107.032-.197.096-.272A.37.37 0 0 1 21.881.8h6.384c.117 0 .207.037.271.112a.339.339 0 0 1 .112.272v.576c0 .128-.058.25-.175.368l-3.088 3.44.255.016c1.088.032 1.947.315 2.576.848.63.533.944 1.312.944 2.336 0 .693-.175 1.296-.527 1.808-.352.512-.838.907-1.456 1.184-.62.267-1.318.4-2.096.4Zm9.93 0c-.832 0-1.563-.133-2.192-.4-.63-.277-1.12-.672-1.472-1.184-.352-.512-.528-1.11-.528-1.792 0-.63.154-1.179.464-1.648.31-.48.73-.848 1.264-1.104a2.681 2.681 0 0 1-.992-.96c-.224-.405-.336-.875-.336-1.408 0-.939.341-1.675 1.024-2.208C32.935.912 33.858.64 35.01.64c1.141 0 2.053.272 2.736.816.693.533 1.04 1.264 1.04 2.192 0 .533-.117 1.003-.352 1.408-.224.395-.544.72-.96.976a3.03 3.03 0 0 1 1.264 1.104c.31.47.464 1.019.464 1.648 0 .683-.176 1.28-.528 1.792-.352.512-.848.907-1.488 1.184-.63.267-1.355.4-2.176.4Zm0-6.704c.64-.01 1.178-.176 1.616-.496.437-.32.656-.741.656-1.264 0-.533-.219-.96-.656-1.28-.427-.33-.965-.496-1.616-.496-.661 0-1.21.16-1.648.48-.427.32-.64.752-.64 1.296 0 .533.213.96.64 1.28.437.32.986.48 1.648.48Zm0 5.424c.747 0 1.37-.192 1.872-.576.501-.384.752-.89.752-1.52s-.25-1.13-.752-1.504c-.502-.373-1.125-.56-1.872-.56-.758 0-1.387.187-1.888.56-.502.373-.752.875-.752 1.504 0 .63.25 1.136.752 1.52.501.384 1.13.576 1.888.576ZM41.377 12a.404.404 0 0 1-.272-.096.404.404 0 0 1-.095-.272V10.48c0-.107.032-.192.096-.256a.37.37 0 0 1 .271-.112h1.152a.37.37 0 0 1 .272.112.32.32 0 0 1 .112.256v1.152a.37.37 0 0 1-.111.272.404.404 0 0 1-.273.096h-1.152Zm3.744 0a.404.404 0 0 1-.272-.096.404.404 0 0 1-.096-.272v-.512c0-.245.133-.48.4-.704l3.392-3.392c.821-.683 1.386-1.237 1.696-1.664.31-.437.464-.896.464-1.376 0-.619-.176-1.104-.528-1.456-.342-.352-.843-.528-1.504-.528-.619 0-1.115.187-1.488.56-.374.363-.603.848-.688 1.456a.431.431 0 0 1-.16.288.43.43 0 0 1-.256.08h-.832a.362.362 0 0 1-.24-.08.307.307 0 0 1-.096-.224 3.654 3.654 0 0 1 .464-1.648c.288-.533.71-.965 1.264-1.296.565-.341 1.242-.512 2.032-.512 1.205 0 2.112.315 2.72.944.618.619.928 1.408.928 2.368 0 .672-.17 1.28-.512 1.824-.33.533-.848 1.11-1.552 1.728l-3.072 3.12h4.992c.117 0 .208.037.272.112a.32.32 0 0 1 .112.256v.656a.37.37 0 0 1-.112.272.404.404 0 0 1-.272.096H45.12Zm13.166.16c-.853 0-1.594-.17-2.224-.512a3.658 3.658 0 0 1-1.44-1.408 3.844 3.844 0 0 1-.496-1.92c0-.565.112-1.099.336-1.6.235-.512.496-.965.784-1.36l3.04-4.24c.011-.01.043-.048.096-.112a.39.39 0 0 1 .176-.144.507.507 0 0 1 .256-.064h.848a.26.26 0 0 1 .224.112.326.326 0 0 1 .096.24.368.368 0 0 1-.064.208l-2.336 3.264c.235-.075.539-.112.912-.112.768.01 1.446.187 2.032.528.598.341 1.056.8 1.376 1.376.331.576.496 1.205.496 1.888 0 .683-.165 1.323-.496 1.92-.32.587-.794 1.056-1.424 1.408-.618.352-1.349.528-2.192.528Zm-.016-1.36c.459 0 .88-.096 1.264-.288.395-.192.704-.475.928-.848.235-.384.352-.837.352-1.36 0-.512-.117-.955-.352-1.328a2.163 2.163 0 0 0-.928-.848 2.787 2.787 0 0 0-1.264-.288c-.448 0-.869.096-1.264.288a2.289 2.289 0 0 0-.928.848c-.234.373-.352.816-.352 1.328 0 .523.118.976.352 1.36.235.373.544.656.928.848.384.192.806.288 1.264.288Z" fill="#555"/></svg>