<svg width="68" height="15" fill="none" xmlns="http://www.w3.org/2000/svg"><path d="M4.656 14.6a.426.426 0 0 1-.288-.112.39.39 0 0 1-.112-.288v-1.104c-.79-.096-1.467-.299-2.032-.608-.555-.31-.976-.683-1.264-1.12a2.903 2.903 0 0 1-.448-1.424c0-.085.032-.16.096-.224a.352.352 0 0 1 .256-.112H2.88c.128 0 .23.027.304.08.085.043.17.112.256.208.139.277.357.507.656.688.31.181.725.272 1.248.272.608 0 1.072-.096 1.392-.288.32-.192.48-.453.48-.784a.73.73 0 0 0-.256-.576c-.16-.15-.416-.283-.768-.4-.352-.117-.875-.25-1.568-.4-1.29-.256-2.25-.645-2.88-1.168C1.114 6.717.8 5.976.8 5.016c0-.853.31-1.579.928-2.176.619-.608 1.461-.981 2.528-1.12V.6a.39.39 0 0 1 .112-.288A.426.426 0 0 1 4.656.2h1.328a.39.39 0 0 1 .288.112.39.39 0 0 1 .112.288v1.152c.704.117 1.307.341 1.808.672.512.32.901.688 1.168 1.104.267.416.41.827.432 1.232a.363.363 0 0 1-.096.24.326.326 0 0 1-.24.096H7.344a.712.712 0 0 1-.32-.064.642.642 0 0 1-.208-.208c-.064-.245-.24-.453-.528-.624-.277-.17-.624-.256-1.04-.256-.48 0-.848.085-1.104.256-.256.17-.384.421-.384.752 0 .224.07.41.208.56.15.15.384.288.704.416.33.117.8.24 1.408.368.992.181 1.781.41 2.368.688.587.267 1.019.613 1.296 1.04.277.427.416.97.416 1.632 0 .939-.341 1.707-1.024 2.304-.683.597-1.6.97-2.752 1.12v1.12a.39.39 0 0 1-.112.288.39.39 0 0 1-.288.112H4.656Z" fill="#2959CE"/><path d="M19.025 13a.404.404 0 0 1-.272-.096.404.404 0 0 1-.096-.272v-8.96L16.001 5.72a.363.363 0 0 1-.24.096c-.096 0-.186-.053-.272-.16l-.416-.528a.383.383 0 0 1-.08-.224c0-.128.054-.23.16-.304l3.488-2.688a.758.758 0 0 1 .416-.112h.816a.32.32 0 0 1 .256.112.32.32 0 0 1 .112.256v10.464a.37.37 0 0 1-.112.272.346.346 0 0 1-.256.096h-.848Zm7.5.16c-1.376 0-2.384-.4-3.024-1.2-.64-.8-.981-1.85-1.024-3.152-.01-.288-.016-.752-.016-1.392 0-.661.006-1.141.016-1.44.032-1.28.373-2.32 1.024-3.12.65-.81 1.659-1.216 3.024-1.216 1.376 0 2.39.405 3.04 1.216.65.8.992 1.84 1.024 3.12a42.1 42.1 0 0 1 .032 1.44c0 .352-.01.816-.032 1.392-.042 1.301-.384 2.352-1.024 3.152-.64.8-1.653 1.2-3.04 1.2Zm0-1.376c.8 0 1.403-.267 1.808-.8.416-.533.635-1.285.656-2.256.021-.619.032-1.067.032-1.344 0-.299-.01-.736-.032-1.312-.021-.96-.235-1.712-.64-2.256C27.944 3.272 27.336 3 26.525 3c-.8 0-1.408.272-1.824.816-.405.544-.619 1.296-.64 2.256l-.016 1.312.016 1.344c.021.97.235 1.723.64 2.256.416.533 1.024.8 1.824.8Zm9.5 1.216a.404.404 0 0 1-.272-.096.404.404 0 0 1-.096-.272v-8.96L33.001 5.72a.363.363 0 0 1-.24.096c-.096 0-.186-.053-.272-.16l-.416-.528a.383.383 0 0 1-.08-.224c0-.128.054-.23.16-.304l3.488-2.688a.758.758 0 0 1 .416-.112h.816a.32.32 0 0 1 .256.112.32.32 0 0 1 .112.256v10.464a.37.37 0 0 1-.112.272.346.346 0 0 1-.256.096h-.848Zm7.196.16c-.842 0-1.573-.133-2.192-.4-.608-.277-1.072-.635-1.392-1.072-.31-.437-.474-.896-.496-1.376 0-.096.032-.17.096-.224a.326.326 0 0 1 .24-.096h.784c.224 0 .373.117.448.352.139.533.438.912.896 1.136.459.213.998.32 1.616.32.758 0 1.36-.176 1.808-.528.448-.363.672-.88.672-1.552 0-1.29-.784-1.936-2.352-1.936h-1.52a.404.404 0 0 1-.272-.096.404.404 0 0 1-.096-.272v-.432c0-.15.059-.293.176-.432l3.104-3.392h-4.72a.404.404 0 0 1-.272-.096.404.404 0 0 1-.096-.272v-.608c0-.107.032-.197.096-.272a.37.37 0 0 1 .272-.112h6.384c.117 0 .208.037.272.112a.339.339 0 0 1 .112.272v.576c0 .128-.059.25-.176.368l-3.088 3.44.256.016c1.088.032 1.947.315 2.576.848.63.533.944 1.312.944 2.336 0 .693-.176 1.296-.528 1.808-.352.512-.837.907-1.456 1.184-.618.267-1.317.4-2.096.4Zm7.226-.16a.326.326 0 0 1-.24-.096.43.43 0 0 1-.08-.256l.031-.144 3.984-9.312h-5.248a.404.404 0 0 1-.271-.096.404.404 0 0 1-.096-.272v-.64c0-.117.032-.208.096-.272a.37.37 0 0 1 .272-.112h6.56c.117 0 .208.037.272.112a.339.339 0 0 1 .112.272v.592c0 .192-.043.4-.128.624l-3.936 9.2a.97.97 0 0 1-.192.288.339.339 0 0 1-.273.112h-.864Zm6.212 0a.404.404 0 0 1-.272-.096.404.404 0 0 1-.096-.272V11.48c0-.107.032-.192.096-.256a.37.37 0 0 1 .272-.112h1.152a.37.37 0 0 1 .272.112.32.32 0 0 1 .112.256v1.152a.37.37 0 0 1-.112.272.404.404 0 0 1-.272.096h-1.152Zm3.743 0a.404.404 0 0 1-.272-.096.404.404 0 0 1-.096-.272v-.512c0-.245.133-.48.4-.704l3.392-3.392c.821-.683 1.387-1.237 1.696-1.664.31-.437.464-.896.464-1.376 0-.619-.176-1.104-.528-1.456-.341-.352-.843-.528-1.504-.528-.619 0-1.115.187-1.488.56-.373.363-.603.848-.688 1.456a.43.43 0 0 1-.16.288.43.43 0 0 1-.256.08h-.832a.362.362 0 0 1-.24-.08.307.307 0 0 1-.096-.224 3.654 3.654 0 0 1 .464-1.648c.288-.533.71-.965 1.264-1.296.565-.341 1.243-.512 2.032-.512 1.205 0 2.112.315 2.72.944.619.619.928 1.408.928 2.368 0 .672-.17 1.28-.512 1.824-.33.533-.848 1.11-1.552 1.728l-3.072 3.12h4.992c.117 0 .208.037.272.112a.32.32 0 0 1 .112.256v.656a.37.37 0 0 1-.112.272.404.404 0 0 1-.272.096h-7.056Z" fill="#555"/></svg>